<?xml version="1.0" encoding="UTF-8" standalone="no"?>
<!-- Created with Inkscape (http://www.inkscape.org/) -->

<svg
   width="92.655922mm"
   height="67.865356mm"
   viewBox="0 0 92.655922 67.865356"
   version="1.1"
   id="svg5"
   xml:space="preserve"
   inkscape:version="1.2.2 (b0a8486541, 2022-12-01)"
   sodipodi:docname="icons.svg"
   xmlns:inkscape="http://www.inkscape.org/namespaces/inkscape"
   xmlns:sodipodi="http://sodipodi.sourceforge.net/DTD/sodipodi-0.dtd"
   xmlns="http://www.w3.org/2000/svg"
   xmlns:svg="http://www.w3.org/2000/svg"><sodipodi:namedview
     id="namedview7"
     pagecolor="#ffffff"
     bordercolor="#000000"
     borderopacity="0.25"
     inkscape:showpageshadow="2"
     inkscape:pageopacity="0.0"
     inkscape:pagecheckerboard="0"
     inkscape:deskcolor="#d1d1d1"
     inkscape:document-units="mm"
     showgrid="false"
     inkscape:zoom="0.86554888"
     inkscape:cx="299.80976"
     inkscape:cy="457.51316"
     inkscape:window-width="1829"
     inkscape:window-height="957"
     inkscape:window-x="0"
     inkscape:window-y="0"
     inkscape:window-maximized="1"
     inkscape:current-layer="layer1" /><defs
     id="defs2"><filter
       inkscape:collect="always"
       style="color-interpolation-filters:sRGB"
       id="filter35612"
       x="-0.010167433"
       y="-0.013752119"
       width="1.020335"
       height="1.0275042"><feGaussianBlur
         inkscape:collect="always"
         stdDeviation="0.15757493"
         id="feGaussianBlur35614" /></filter></defs><g
     inkscape:label="Capa 1"
     inkscape:groupmode="layer"
     id="layer1"
     transform="translate(-32.585572,-190.8215)"><g
       id="g35634"><g
         id="g35358"
         transform="matrix(0.30796972,0,0,0.30796972,574.07007,57.1878)"><path
           id="path35294"
           style="fill:#d06821;fill-opacity:1;stroke:none;stroke-width:4.05811;stroke-linejoin:round"
           d="m -1642.2117,435.99502 c -42.8764,-9.93709 -85.6962,16.74205 -95.6727,59.60926 -4.1085,17.65362 -2.007,35.30337 4.8798,50.65797 2.0573,4.58665 -25.2348,41.92388 -25.2348,41.92388 0,0 39.7078,-19.79836 43.9394,-15.88693 9.8009,9.05926 22.0131,15.77839 35.9371,19.03237 42.8581,10.01569 85.7268,-16.58492 95.7818,-59.43377 10.055,-42.84884 -16.5063,-85.74198 -59.3459,-95.83624"
           sodipodi:nodetypes="csscsssc" /><path
           style="fill:#e8a3a0;fill-opacity:0.823529;stroke:none;stroke-width:4.93342;stroke-linecap:butt;stroke-linejoin:round;stroke-dasharray:none;stroke-opacity:1"
           id="path35296"
           sodipodi:type="arc"
           sodipodi:cx="1657.5553"
           sodipodi:cy="512.08234"
           sodipodi:rx="74.383286"
           sodipodi:ry="74.383286"
           sodipodi:start="4.4846479"
           sodipodi:end="4.4809814"
           sodipodi:open="true"
           sodipodi:arc-type="arc"
           d="m 1640.7612,439.61971 a 74.383286,74.383286 0 0 1 89.2413,55.60214 74.383286,74.383286 0 0 1 -55.5203,89.2922 74.383286,74.383286 0 0 1 -89.3431,-55.43844 74.383286,74.383286 0 0 1 55.3566,-89.39384"
           transform="scale(-1,1)" /></g><g
         id="g35292"
         transform="matrix(0.30796972,0,0,0.30796972,575.64398,88.898613)"><path
           id="path30077"
           style="fill:#21c7d6;fill-opacity:1;stroke:none;stroke-width:4.05811;stroke-linejoin:round"
           d="m -1578.5172,393.86812 c 42.8764,-9.93709 85.6962,16.74205 95.6727,59.60926 4.1085,17.65362 2.007,35.30337 -4.8798,50.65797 -2.0573,4.58665 25.2348,41.92388 25.2348,41.92388 0,0 -39.7078,-19.79836 -43.9394,-15.88693 -9.8009,9.05926 -22.0131,15.77839 -35.9371,19.03237 -42.8581,10.01569 -85.7268,-16.58492 -95.7818,-59.43377 -10.055,-42.84884 16.5063,-85.74198 59.3459,-95.83624"
           sodipodi:nodetypes="csscsssc" /><path
           style="fill:#a9ffff;fill-opacity:0.823529;stroke:none;stroke-width:4.93342;stroke-linecap:butt;stroke-linejoin:round;stroke-dasharray:none;stroke-opacity:1"
           id="path34382"
           sodipodi:type="arc"
           sodipodi:cx="-1563.1736"
           sodipodi:cy="469.95541"
           sodipodi:rx="74.383286"
           sodipodi:ry="74.383286"
           sodipodi:start="4.4846479"
           sodipodi:end="4.4809814"
           sodipodi:open="true"
           sodipodi:arc-type="arc"
           d="m -1579.9677,397.49279 a 74.383286,74.383286 0 0 1 89.2413,55.60214 74.383286,74.383286 0 0 1 -55.5203,89.2922 74.383286,74.383286 0 0 1 -89.3431,-55.43844 74.383286,74.383286 0 0 1 55.3566,-89.39384" /></g><g
         id="g34822"
         transform="matrix(0.30796972,0,0,0.30796972,307.42487,58.593041)"><path
           style="fill:none;fill-opacity:1;stroke:#12a1e4;stroke-width:7.8272;stroke-linecap:butt;stroke-dasharray:none;stroke-opacity:1"
           d="m -710.64932,535.10254 c 0,0 9.30329,-0.3719 18.02009,0.20919 23.74794,1.58311 41.93962,8.39321 42.89721,30.98269 0.87833,20.71941 -16.84198,31.65924 -29.55329,32.87956 -10.89703,1.04614 -14.96722,-0.46875 -14.96722,-0.46875"
           id="path34816"
           sodipodi:nodetypes="csssc" /><text
           xml:space="preserve"
           style="font-size:94.5989px;font-family:UnDinaru;-inkscape-font-specification:'UnDinaru, Normal';fill:#127dc3;fill-opacity:1;stroke:#127dc3;stroke-width:2.31917;stroke-linecap:round;stroke-opacity:1"
           x="-738.97284"
           y="602.24493"
           id="text34820"><tspan
             sodipodi:role="line"
             id="tspan34818"
             style="font-style:normal;font-variant:normal;font-weight:normal;font-stretch:normal;font-size:94.5989px;font-family:'URW Gothic';-inkscape-font-specification:'URW Gothic, Normal';font-variant-ligatures:normal;font-variant-caps:normal;font-variant-numeric:normal;font-variant-east-asian:normal;fill:#127dc3;fill-opacity:1;stroke:#127dc3;stroke-width:2.31917;stroke-opacity:1"
             x="-738.97284"
             y="602.24493">R</tspan></text></g><g
         id="g35602"
         style="fill:#aaaaaa;fill-opacity:0.920087;filter:url(#filter35612)"><rect
           style="fill:#aaaaaa;fill-opacity:0.920087;stroke:none;stroke-width:0.601754;stroke-linecap:butt;stroke-linejoin:round;stroke-dasharray:none;stroke-opacity:1"
           id="rect35446"
           width="22.340899"
           height="6.7127371"
           x="-71.461441"
           y="212.48253"
           ry="0.2256632"
           transform="rotate(-31.900764)" /><path
           id="path35448"
           style="fill:#aaaaaa;fill-opacity:0.920087;stroke:none;stroke-width:0.679736;stroke-linejoin:round"
           d="m 46.669982,217.49207 c 2.718484,-2.6835 7.071606,-2.73161 9.726196,-0.10748 2.65462,2.6241 2.606804,6.92809 -0.106787,9.61638 -2.46301,2.44005 -8.948869,0.78239 -8.948869,0.78239 l 4.945348,-3.25577 -2.26614,-3.57005 -5.170851,3.28329 c 0,0 -0.0493,-4.88923 1.803048,-6.73089"
           sodipodi:nodetypes="cssccccc" /><path
           id="path35450"
           style="fill:#aaaaaa;fill-opacity:0.920087;stroke:none;stroke-width:0.679736;stroke-linejoin:round"
           d="m 73.10596,201.03663 c -3.607982,1.2545 -5.572971,5.13919 -4.390408,8.67959 1.182563,3.54041 5.065516,5.39764 8.675672,4.14963 3.276724,-1.13273 4.652745,-7.68413 4.652745,-7.68413 l -5.104585,2.99995 -2.202811,-3.60947 5.22881,-3.19011 c 0,0 -4.365196,-2.20275 -6.83544,-1.35375"
           sodipodi:nodetypes="cssccccc" /></g><g
         id="g35610"
         transform="translate(-0.81757247,-1.1138937)"><rect
           style="fill:#ffffff;fill-opacity:1;stroke:none;stroke-width:0.601754;stroke-linecap:butt;stroke-linejoin:round;stroke-dasharray:none;stroke-opacity:1"
           id="rect35604"
           width="22.340899"
           height="6.7127371"
           x="-71.461441"
           y="212.48253"
           ry="0.2256632"
           transform="rotate(-31.900764)" /><path
           id="path35606"
           style="fill:#ffffff;fill-opacity:1;stroke:none;stroke-width:0.679736;stroke-linejoin:round"
           d="m 46.669982,217.49207 c 2.718484,-2.6835 7.071606,-2.73161 9.726196,-0.10748 2.65462,2.6241 2.606804,6.92809 -0.106787,9.61638 -2.46301,2.44005 -8.948869,0.78239 -8.948869,0.78239 l 4.945348,-3.25577 -2.26614,-3.57005 -5.170851,3.28329 c 0,0 -0.0493,-4.88923 1.803048,-6.73089"
           sodipodi:nodetypes="cssccccc" /><path
           id="path35608"
           style="fill:#ffffff;fill-opacity:1;stroke:none;stroke-width:0.679736;stroke-linejoin:round"
           d="m 73.10596,201.03663 c -3.607982,1.2545 -5.572971,5.13919 -4.390408,8.67959 1.182563,3.54041 5.065516,5.39764 8.675672,4.14963 3.276724,-1.13273 4.652745,-7.68413 4.652745,-7.68413 l -5.104585,2.99995 -2.202811,-3.60947 5.22881,-3.19011 c 0,0 -4.365196,-2.20275 -6.83544,-1.35375"
           sodipodi:nodetypes="cssccccc" /></g></g></g><style
     id="style342">.st0{fill:#ffbc00}.st1{fill:#fff}</style></svg>
