<?xml version="1.0" encoding="UTF-8" standalone="no"?>
<!-- Created with Inkscape (http://www.inkscape.org/) -->

<svg
   width="62.705719mm"
   height="62.705742mm"
   viewBox="0 0 62.705719 62.705742"
   version="1.1"
   id="svg5"
   xml:space="preserve"
   inkscape:version="1.2.2 (b0a8486541, 2022-12-01)"
   sodipodi:docname="icons.svg"
   xmlns:inkscape="http://www.inkscape.org/namespaces/inkscape"
   xmlns:sodipodi="http://sodipodi.sourceforge.net/DTD/sodipodi-0.dtd"
   xmlns="http://www.w3.org/2000/svg"
   xmlns:svg="http://www.w3.org/2000/svg"><sodipodi:namedview
     id="namedview7"
     pagecolor="#ffffff"
     bordercolor="#000000"
     borderopacity="0.25"
     inkscape:showpageshadow="2"
     inkscape:pageopacity="0.0"
     inkscape:pagecheckerboard="0"
     inkscape:deskcolor="#d1d1d1"
     inkscape:document-units="mm"
     showgrid="false"
     inkscape:zoom="1.224071"
     inkscape:cx="415.82556"
     inkscape:cy="479.95583"
     inkscape:window-width="1920"
     inkscape:window-height="1008"
     inkscape:window-x="0"
     inkscape:window-y="0"
     inkscape:window-maximized="1"
     inkscape:current-layer="layer1" /><defs
     id="defs2" /><g
     inkscape:label="Capa 1"
     inkscape:groupmode="layer"
     id="layer1"
     transform="translate(-138.79842,-111.06894)"><g
       id="g1153"
       transform="translate(-38.326155,74.842049)"><g
         id="start-here-kde"
         transform="matrix(2.3224342,0,0,2.3224342,118.38045,30.225487)"><rect
           ry="0"
           rx="0"
           y="2.5841048"
           x="25.294207"
           height="27"
           width="27"
           id="rect836-3-1-3-6"
           style="opacity:1;fill:none;fill-opacity:1;stroke:none;stroke-width:1.6875;stroke-miterlimit:4;stroke-dasharray:none;stroke-opacity:1" /><path
           inkscape:label=""
           sodipodi:nodetypes="cccccccccsscccccccccc"
           inkscape:connector-curvature="0"
           id="768658"
           d="m 38.51129,6.7157543 c 0.03395,0.7200504 0.137514,1.4402892 0.05022,2.1603376 L 34.994323,7.4189955 c 0.454054,0.4957438 0.85773,0.9918765 1.158466,1.4878167 -3.978304,0.1622788 -7.299053,3.1481588 -7.855354,7.1228218 -0.396323,0.08115 -0.906786,0.102404 -2.053425,-0.06763 0.249442,7.154316 6.380013,9.486793 10.241148,9.491622 3.707111,-0.08693 7.379755,-2.822232 8.125935,-6.721934 0.63865,0.260816 1.315813,0.395862 1.99898,0.398375 3.139258,0 5.684121,-2.735878 5.684132,-6.110467 9e-6,-3.3751694 -2.544859,-6.1108515 -5.684132,-6.1108515 -2.224396,0 -4.240964,1.3983654 -5.164388,3.5691385 L 38.511236,6.714584 Z M 25.60997,13.273857 c -0.01633,0 -0.03197,0 -0.0474,0.01927 -0.25486,0.06763 -0.343823,0.56781 -0.198707,1.117456 0.14512,0.550229 0.469358,0.941454 0.724238,0.874223 0.25486,-0.06568 0.343848,-0.567619 0.198778,-1.117651 -0.134933,-0.511395 -0.427556,-0.892383 -0.676884,-0.881177 z"
           style="color:#000000;display:inline;overflow:visible;visibility:visible;opacity:1;fill:#31363b;fill-opacity:1;fill-rule:nonzero;stroke:none;stroke-width:1.55526;stroke-linecap:square;stroke-linejoin:miter;stroke-miterlimit:4;stroke-dasharray:none;stroke-opacity:1;marker:none;enable-background:accumulate" /></g><g
         id="g471"
         transform="matrix(0.30796972,0,0,0.30796972,416.37911,-104.99234)"><path
           style="fill:none;fill-opacity:1;stroke:#12a1e4;stroke-width:7.8272;stroke-linecap:butt;stroke-dasharray:none;stroke-opacity:1"
           d="m -710.64932,535.10254 c 0,0 9.30329,-0.3719 18.02009,0.20919 23.74794,1.58311 41.93962,8.39321 42.89721,30.98269 0.87833,20.71941 -16.84198,31.65924 -29.55329,32.87956 -10.89703,1.04614 -14.96722,-0.46875 -14.96722,-0.46875"
           id="path465"
           sodipodi:nodetypes="csssc" /><text
           xml:space="preserve"
           style="font-size:94.5989px;font-family:UnDinaru;-inkscape-font-specification:'UnDinaru, Normal';fill:#127dc3;fill-opacity:1;stroke:#127dc3;stroke-width:2.31917;stroke-linecap:round;stroke-opacity:1"
           x="-738.97284"
           y="602.24493"
           id="text469"><tspan
             sodipodi:role="line"
             id="tspan467"
             style="font-style:normal;font-variant:normal;font-weight:normal;font-stretch:normal;font-size:94.5989px;font-family:'URW Gothic';-inkscape-font-specification:'URW Gothic, Normal';font-variant-ligatures:normal;font-variant-caps:normal;font-variant-numeric:normal;font-variant-east-asian:normal;fill:#127dc3;fill-opacity:1;stroke:#127dc3;stroke-width:2.31917;stroke-opacity:1"
             x="-738.97284"
             y="602.24493">R</tspan></text></g></g></g><style
     id="style342">.st0{fill:#ffbc00}.st1{fill:#fff}</style></svg>
