<?xml version="1.0" encoding="UTF-8" standalone="no"?>
<!-- Created with Inkscape (http://www.inkscape.org/) -->

<svg
   width="104.21662mm"
   height="77.972mm"
   viewBox="0 0 104.21662 77.972"
   version="1.1"
   id="svg5"
   xml:space="preserve"
   inkscape:version="1.2.2 (b0a8486541, 2022-12-01)"
   sodipodi:docname="icons.svg"
   xmlns:inkscape="http://www.inkscape.org/namespaces/inkscape"
   xmlns:sodipodi="http://sodipodi.sourceforge.net/DTD/sodipodi-0.dtd"
   xmlns:xlink="http://www.w3.org/1999/xlink"
   xmlns="http://www.w3.org/2000/svg"
   xmlns:svg="http://www.w3.org/2000/svg"><sodipodi:namedview
     id="namedview7"
     pagecolor="#ffffff"
     bordercolor="#000000"
     borderopacity="0.25"
     inkscape:showpageshadow="2"
     inkscape:pageopacity="0.0"
     inkscape:pagecheckerboard="0"
     inkscape:deskcolor="#d1d1d1"
     inkscape:document-units="mm"
     showgrid="false"
     inkscape:zoom="0.8655489"
     inkscape:cx="194.09648"
     inkscape:cy="520.47897"
     inkscape:window-width="1920"
     inkscape:window-height="1008"
     inkscape:window-x="0"
     inkscape:window-y="0"
     inkscape:window-maximized="1"
     inkscape:current-layer="layer1" /><defs
     id="defs2"><linearGradient
       inkscape:collect="always"
       id="linearGradient1141"><stop
         style="stop-color:#91f5f8;stop-opacity:1;"
         offset="0"
         id="stop1137" /><stop
         style="stop-color:#12a1e4;stop-opacity:1;"
         offset="1"
         id="stop1139" /></linearGradient><linearGradient
       inkscape:collect="always"
       id="linearGradient26138"><stop
         style="stop-color:#275eba;stop-opacity:1;"
         offset="0.12178308"
         id="stop26134" /><stop
         style="stop-color:#0a4dcc;stop-opacity:0.23144531;"
         offset="1"
         id="stop26136" /></linearGradient><filter
       inkscape:collect="always"
       style="color-interpolation-filters:sRGB"
       id="filter25632"
       x="-0.01574791"
       y="-0.024347246"
       width="1.0314958"
       height="1.0486945"><feGaussianBlur
         inkscape:collect="always"
         stdDeviation="0.2640327"
         id="feGaussianBlur25634" /></filter><linearGradient
       inkscape:collect="always"
       xlink:href="#linearGradient26138"
       id="linearGradient26140"
       x1="7185.6851"
       y1="2995.52"
       x2="8982.3154"
       y2="2995.52"
       gradientUnits="userSpaceOnUse" /><linearGradient
       inkscape:collect="always"
       xlink:href="#linearGradient26138"
       id="linearGradient30119"
       gradientUnits="userSpaceOnUse"
       x1="7185.6851"
       y1="2995.52"
       x2="8982.3154"
       y2="2995.52" /><linearGradient
       inkscape:collect="always"
       xlink:href="#linearGradient1141"
       id="linearGradient3085"
       gradientUnits="userSpaceOnUse"
       x1="25.054256"
       y1="15.833558"
       x2="52.533607"
       y2="15.833558" /></defs><g
     inkscape:label="Capa 1"
     inkscape:groupmode="layer"
     id="layer1"
     transform="translate(-26.620528,-102.17131)"><g
       id="g3524"><g
         transform="matrix(0.05800672,0,0,0.15360004,-390.19749,-318.95469)"
         id="g26101"
         style="clip-rule:evenodd;fill:url(#linearGradient26140);fill-opacity:1;fill-rule:evenodd;stroke-linecap:round;stroke-linejoin:round;stroke-miterlimit:1.5"><path
           d="m 8981,2766.6 c 0,-13.01 -20.45,-23.58 -45.65,-23.58 h -1702.7 c -25.2,0 -45.65,10.57 -45.65,23.58 v 457.84 c 0,13.01 20.45,23.58 45.65,23.58 h 1702.7 c 25.2,0 45.65,-10.57 45.65,-23.58 z"
           fill="#f9f9f9"
           stroke="#c7c7c7"
           stroke-width="2.63px"
           id="path26099"
           style="fill:url(#linearGradient30119);fill-opacity:1" /></g><g
         id="g26089"
         transform="matrix(0.23162974,0,0,0.23162974,434.54889,-23.293269)"><rect
           style="fill:#000000;fill-opacity:0;stroke:#969696;stroke-width:7.9341;stroke-linecap:butt;stroke-linejoin:round;stroke-dasharray:none;stroke-opacity:1;filter:url(#filter25632)"
           id="rect25847"
           width="292.1485"
           height="188.963"
           x="-1892.0802"
           y="321.11475"
           ry="11.479093"
           transform="matrix(0.60901553,0,0,0.71794397,-583.90078,317.5455)" /><rect
           style="fill:#cccccc;fill-opacity:1;stroke:#ffffff;stroke-width:5.05055;stroke-linecap:butt;stroke-linejoin:round;stroke-dasharray:none;stroke-opacity:1"
           id="rect25849"
           width="171.28278"
           height="130.60173"
           x="-1732.8868"
           y="550.61945"
           ry="7.9337726" /><rect
           style="fill:#ffffff;fill-opacity:1;stroke:none;stroke-width:4.35142;stroke-linecap:butt;stroke-linejoin:round;stroke-dasharray:none;stroke-opacity:1"
           id="rect25851"
           width="159.57391"
           height="104.06045"
           x="-1727.0325"
           y="571.81421"
           ry="6.3214469" /></g><g
         id="g26097"
         transform="matrix(0.42866908,0,0,0.43605363,796.46234,-126.36789)"><rect
           style="fill:#000000;fill-opacity:0;stroke:#969696;stroke-width:7.9341;stroke-linecap:butt;stroke-linejoin:round;stroke-dasharray:none;stroke-opacity:1;filter:url(#filter25632)"
           id="rect26091"
           width="292.1485"
           height="188.963"
           x="-1892.0802"
           y="321.11475"
           ry="11.479093"
           transform="matrix(0.60901553,0,0,0.71794397,-583.90078,317.5455)" /><rect
           style="fill:#cccccc;fill-opacity:1;stroke:#ffffff;stroke-width:5.05055;stroke-linecap:butt;stroke-linejoin:round;stroke-dasharray:none;stroke-opacity:1"
           id="rect26093"
           width="171.28278"
           height="130.60173"
           x="-1732.8868"
           y="550.61945"
           ry="7.9337726" /><rect
           style="fill:#ffffff;fill-opacity:1;stroke:none;stroke-width:4.35142;stroke-linecap:butt;stroke-linejoin:round;stroke-dasharray:none;stroke-opacity:1"
           id="rect26095"
           width="159.57391"
           height="104.06045"
           x="-1727.0325"
           y="571.81421"
           ry="6.3214469" /></g><g
         id="g30075"
         transform="matrix(0.30796972,0,0,0.30796972,694.20282,-4.3697775)"><rect
           style="fill:#b4b4b4;fill-opacity:1;stroke:none;stroke-width:4.63052;stroke-linecap:butt;stroke-linejoin:round;stroke-dasharray:none;stroke-opacity:1"
           id="rect26204"
           width="326.38025"
           height="14.272676"
           x="-2161.6787"
           y="579.93811"
           ry="3.7919161" /><rect
           style="fill:#000000;fill-opacity:1;stroke:none;stroke-width:3.64815;stroke-linecap:butt;stroke-linejoin:round;stroke-dasharray:none;stroke-opacity:1"
           id="rect29900"
           width="9.9917269"
           height="9.9142962"
           x="-2158.5405"
           y="582.6781"
           ry="1.8111407" /><rect
           style="fill:#0060ff;fill-opacity:1;stroke:none;stroke-width:3.64815;stroke-linecap:butt;stroke-linejoin:round;stroke-dasharray:none;stroke-opacity:1"
           id="rect29954"
           width="9.9917269"
           height="9.9142962"
           x="-2136.4883"
           y="582.11731"
           ry="1.8111407" /><rect
           style="fill:#ff5555;fill-opacity:1;stroke:none;stroke-width:3.64815;stroke-linecap:butt;stroke-linejoin:round;stroke-dasharray:none;stroke-opacity:1"
           id="rect29956"
           width="9.9917269"
           height="9.9142962"
           x="-2123.697"
           y="582.11731"
           ry="1.8111407" /><rect
           style="fill:#f2f2f2;fill-opacity:1;stroke:none;stroke-width:3.64815;stroke-linecap:butt;stroke-linejoin:round;stroke-dasharray:none;stroke-opacity:1"
           id="rect29958"
           width="9.9917269"
           height="9.9142962"
           x="-2110.9058"
           y="582.11731"
           ry="1.8111407" /><rect
           style="fill:#000000;fill-opacity:1;stroke:none;stroke-width:3.64815;stroke-linecap:butt;stroke-linejoin:round;stroke-dasharray:none;stroke-opacity:1"
           id="rect29960"
           width="9.9917269"
           height="9.9142962"
           x="-2158.5405"
           y="582.11731"
           ry="1.8111407" /><path
           style="fill:#000000;fill-opacity:1;stroke:none;stroke-width:7.63799;stroke-linecap:butt;stroke-linejoin:round;stroke-dasharray:none;stroke-opacity:1"
           id="path30014"
           sodipodi:type="arc"
           sodipodi:cx="-1843.5088"
           sodipodi:cy="587.07446"
           sodipodi:rx="3.0429912"
           sodipodi:ry="3.2684293"
           sodipodi:start="4.4846479"
           sodipodi:end="4.4809814"
           sodipodi:open="true"
           sodipodi:arc-type="arc"
           d="m -1844.1958,583.89043 a 3.0429912,3.2684293 0 0 1 3.6508,2.44318 3.0429912,3.2684293 0 0 1 -2.2713,3.92353 3.0429912,3.2684293 0 0 1 -3.655,-2.43599 3.0429912,3.2684293 0 0 1 2.2646,-3.92799" /></g><g
         id="g3083"
         transform="translate(30.578631,93.211502)"><g
           id="g3073"
           transform="matrix(-2.3224342,0,0,2.3224342,151.3358,15.248081)"
           style="stroke:none;stroke-width:0.999813;stroke-dasharray:none"><path
             id="path3069"
             style="opacity:1;fill:none;stroke:none;stroke-width:0.999813;stroke-dasharray:none"
             d="m 25.294207,2.5841048 h 27 V 29.584105 h -27 z" /><path
             inkscape:label=""
             sodipodi:nodetypes="cccccccccsscccccccccc"
             inkscape:connector-curvature="0"
             id="path3071"
             d="m 38.51129,6.7157543 c 0.03395,0.7200504 0.137514,1.4402892 0.05022,2.1603376 L 34.994323,7.4189955 c 0.454054,0.4957438 0.85773,0.9918765 1.158466,1.4878167 -3.978304,0.1622788 -7.299053,3.1481588 -7.855354,7.1228218 -0.396323,0.08115 -0.906786,0.102404 -2.053425,-0.06763 0.249442,7.154316 6.380013,9.486793 10.241148,9.491622 3.707111,-0.08693 7.379755,-2.822232 8.125935,-6.721934 0.63865,0.260816 1.315813,0.395862 1.99898,0.398375 3.139258,0 5.684121,-2.735878 5.684132,-6.110467 9e-6,-3.3751694 -2.544859,-6.1108515 -5.684132,-6.1108515 -2.224396,0 -4.240964,1.3983654 -5.164388,3.5691385 L 38.511236,6.714584 Z M 25.60997,13.273857 c -0.01633,0 -0.03197,0 -0.0474,0.01927 -0.25486,0.06763 -0.343823,0.56781 -0.198707,1.117456 0.14512,0.550229 0.469358,0.941454 0.724238,0.874223 0.25486,-0.06568 0.343848,-0.567619 0.198778,-1.117651 -0.134933,-0.511395 -0.427556,-0.892383 -0.676884,-0.881177 z"
             style="color:#000000;display:inline;overflow:visible;visibility:visible;opacity:1;fill:url(#linearGradient3085);fill-opacity:1;fill-rule:nonzero;stroke:none;stroke-width:0.999813;stroke-linecap:square;stroke-linejoin:miter;stroke-miterlimit:4;stroke-dasharray:none;stroke-opacity:1;marker:none;enable-background:accumulate" /></g><g
           id="g3081"
           transform="matrix(0.30796972,0,0,0.30796972,281.46509,-119.99632)"><path
             style="fill:none;fill-opacity:1;stroke:#12a1e4;stroke-width:7.8272;stroke-linecap:butt;stroke-dasharray:none;stroke-opacity:1"
             d="m -710.64932,535.10254 c 0,0 9.30329,-0.3719 18.02009,0.20919 23.74794,1.58311 41.93962,8.39321 42.89721,30.98269 0.87833,20.71941 -16.84198,31.65924 -29.55329,32.87956 -10.89703,1.04614 -14.96722,-0.46875 -14.96722,-0.46875"
             id="path3075"
             sodipodi:nodetypes="csssc" /><text
             xml:space="preserve"
             style="font-size:94.5989px;font-family:UnDinaru;-inkscape-font-specification:'UnDinaru, Normal';fill:#127dc3;fill-opacity:1;stroke:#127dc3;stroke-width:2.31917;stroke-linecap:round;stroke-opacity:1"
             x="-738.97284"
             y="602.24493"
             id="text3079"><tspan
               sodipodi:role="line"
               id="tspan3077"
               style="font-style:normal;font-variant:normal;font-weight:normal;font-stretch:normal;font-size:94.5989px;font-family:'URW Gothic';-inkscape-font-specification:'URW Gothic, Normal';font-variant-ligatures:normal;font-variant-caps:normal;font-variant-numeric:normal;font-variant-east-asian:normal;fill:#127dc3;fill-opacity:1;stroke:#127dc3;stroke-width:2.31917;stroke-opacity:1"
               x="-738.97284"
               y="602.24493">R</tspan></text></g></g></g></g><style
     id="style342">.st0{fill:#ffbc00}.st1{fill:#fff}</style></svg>
