<?xml version="1.0" encoding="UTF-8" standalone="no"?>
<!-- Created with Inkscape (http://www.inkscape.org/) -->

<svg
   width="108.09846mm"
   height="78.022064mm"
   viewBox="0 0 108.09846 78.022064"
   version="1.1"
   id="svg5"
   xml:space="preserve"
   inkscape:version="1.2.2 (b0a8486541, 2022-12-01)"
   sodipodi:docname="icons.svg"
   xmlns:inkscape="http://www.inkscape.org/namespaces/inkscape"
   xmlns:sodipodi="http://sodipodi.sourceforge.net/DTD/sodipodi-0.dtd"
   xmlns="http://www.w3.org/2000/svg"
   xmlns:svg="http://www.w3.org/2000/svg"><sodipodi:namedview
     id="namedview7"
     pagecolor="#ffffff"
     bordercolor="#000000"
     borderopacity="0.25"
     inkscape:showpageshadow="2"
     inkscape:pageopacity="0.0"
     inkscape:pagecheckerboard="0"
     inkscape:deskcolor="#d1d1d1"
     inkscape:document-units="mm"
     showgrid="false"
     inkscape:zoom="1.224071"
     inkscape:cx="415.82556"
     inkscape:cy="479.95583"
     inkscape:window-width="1920"
     inkscape:window-height="1008"
     inkscape:window-x="0"
     inkscape:window-y="0"
     inkscape:window-maximized="1"
     inkscape:current-layer="layer1" /><defs
     id="defs2"><filter
       inkscape:collect="always"
       style="color-interpolation-filters:sRGB"
       id="filter35612"
       x="-0.010167433"
       y="-0.013752119"
       width="1.020335"
       height="1.0275042"><feGaussianBlur
         inkscape:collect="always"
         stdDeviation="0.15757493"
         id="feGaussianBlur35614" /></filter></defs><g
     inkscape:label="Capa 1"
     inkscape:groupmode="layer"
     id="layer1"
     transform="translate(-2.7095245,-186.8684)"><g
       id="g1348"
       transform="translate(-101.85408,-2.7795581)"><g
         id="g1169"
         transform="translate(-27.168239,168.73741)"><g
           id="g1159"
           transform="matrix(2.3224342,0,0,2.3224342,118.38045,30.225487)"><rect
             ry="0"
             rx="0"
             y="2.5841048"
             x="25.294207"
             height="27"
             width="27"
             id="rect1155"
             style="opacity:1;fill:none;fill-opacity:1;stroke:none;stroke-width:1.6875;stroke-miterlimit:4;stroke-dasharray:none;stroke-opacity:1" /><path
             inkscape:label=""
             sodipodi:nodetypes="cccccccccsscccccccccc"
             inkscape:connector-curvature="0"
             id="path1157"
             d="m 38.51129,6.7157543 c 0.03395,0.7200504 0.137514,1.4402892 0.05022,2.1603376 L 34.994323,7.4189955 c 0.454054,0.4957438 0.85773,0.9918765 1.158466,1.4878167 -3.978304,0.1622788 -7.299053,3.1481588 -7.855354,7.1228218 -0.396323,0.08115 -0.906786,0.102404 -2.053425,-0.06763 0.249442,7.154316 6.380013,9.486793 10.241148,9.491622 3.707111,-0.08693 7.379755,-2.822232 8.125935,-6.721934 0.63865,0.260816 1.315813,0.395862 1.99898,0.398375 3.139258,0 5.684121,-2.735878 5.684132,-6.110467 9e-6,-3.3751694 -2.544859,-6.1108515 -5.684132,-6.1108515 -2.224396,0 -4.240964,1.3983654 -5.164388,3.5691385 L 38.511236,6.714584 Z M 25.60997,13.273857 c -0.01633,0 -0.03197,0 -0.0474,0.01927 -0.25486,0.06763 -0.343823,0.56781 -0.198707,1.117456 0.14512,0.550229 0.469358,0.941454 0.724238,0.874223 0.25486,-0.06568 0.343848,-0.567619 0.198778,-1.117651 -0.134933,-0.511395 -0.427556,-0.892383 -0.676884,-0.881177 z"
             style="color:#000000;display:inline;overflow:visible;visibility:visible;opacity:1;fill:#31363b;fill-opacity:1;fill-rule:nonzero;stroke:none;stroke-width:1.55526;stroke-linecap:square;stroke-linejoin:miter;stroke-miterlimit:4;stroke-dasharray:none;stroke-opacity:1;marker:none;enable-background:accumulate" /></g><g
           id="g1167"
           transform="matrix(0.30796972,0,0,0.30796972,416.37911,-104.99234)"><path
             style="fill:none;fill-opacity:1;stroke:#12a1e4;stroke-width:7.8272;stroke-linecap:butt;stroke-dasharray:none;stroke-opacity:1"
             d="m -710.64932,535.10254 c 0,0 9.30329,-0.3719 18.02009,0.20919 23.74794,1.58311 41.93962,8.39321 42.89721,30.98269 0.87833,20.71941 -16.84198,31.65924 -29.55329,32.87956 -10.89703,1.04614 -14.96722,-0.46875 -14.96722,-0.46875"
             id="path1161"
             sodipodi:nodetypes="csssc" /><text
             xml:space="preserve"
             style="font-size:94.5989px;font-family:UnDinaru;-inkscape-font-specification:'UnDinaru, Normal';fill:#127dc3;fill-opacity:1;stroke:#127dc3;stroke-width:2.31917;stroke-linecap:round;stroke-opacity:1"
             x="-738.97284"
             y="602.24493"
             id="text1165"><tspan
               sodipodi:role="line"
               id="tspan1163"
               style="font-style:normal;font-variant:normal;font-weight:normal;font-stretch:normal;font-size:94.5989px;font-family:'URW Gothic';-inkscape-font-specification:'URW Gothic, Normal';font-variant-ligatures:normal;font-variant-caps:normal;font-variant-numeric:normal;font-variant-east-asian:normal;fill:#127dc3;fill-opacity:1;stroke:#127dc3;stroke-width:2.31917;stroke-opacity:1"
               x="-738.97284"
               y="602.24493">R</tspan></text></g></g><g
         id="g1325"><g
           id="g1181"
           transform="matrix(0.29531505,0.08737489,-0.08737489,0.29531505,631.16782,211.30032)"><path
             id="path1177"
             style="fill:#21c7d6;fill-opacity:1;stroke:none;stroke-width:4.05811;stroke-linejoin:round"
             d="m -1578.5172,393.86812 c 42.8764,-9.93709 85.6962,16.74205 95.6727,59.60926 4.1085,17.65362 2.007,35.30337 -4.8798,50.65797 -2.0573,4.58665 25.2348,41.92388 25.2348,41.92388 0,0 -39.7078,-19.79836 -43.9394,-15.88693 -9.8009,9.05926 -22.0131,15.77839 -35.9371,19.03237 -42.8581,10.01569 -85.7268,-16.58492 -95.7818,-59.43377 -10.055,-42.84884 16.5063,-85.74198 59.3459,-95.83624"
             sodipodi:nodetypes="csscsssc" /><path
             id="path1179"
             style="fill:#a9ffff;fill-opacity:0.823529;stroke-width:4.93342;stroke-linejoin:round"
             d="m -1579.9677,397.49279 a 74.383286,74.383286 0 0 1 89.2413,55.60214 74.383286,74.383286 0 0 1 -55.5203,89.2922 74.383286,74.383286 0 0 1 -89.3431,-55.43844 74.383286,74.383286 0 0 1 55.3566,-89.39384" /></g><g
           id="g1311"
           transform="translate(-48.443847,56.355286)"><g
             id="g1273"
             style="fill:#aaaaaa;fill-opacity:0.920087;filter:url(#filter35612)"
             transform="translate(115.16084,-56.877086)"><rect
               style="fill:#aaaaaa;fill-opacity:0.920087;stroke:none;stroke-width:0.601754;stroke-linecap:butt;stroke-linejoin:round;stroke-dasharray:none;stroke-opacity:1"
               id="rect1267"
               width="22.340899"
               height="6.7127371"
               x="-71.461441"
               y="212.48253"
               ry="0.2256632"
               transform="rotate(-31.900764)" /><path
               id="path1269"
               style="fill:#aaaaaa;fill-opacity:0.920087;stroke:none;stroke-width:0.679736;stroke-linejoin:round"
               d="m 46.669982,217.49207 c 2.718484,-2.6835 7.071606,-2.73161 9.726196,-0.10748 2.65462,2.6241 2.606804,6.92809 -0.106787,9.61638 -2.46301,2.44005 -8.948869,0.78239 -8.948869,0.78239 l 4.945348,-3.25577 -2.26614,-3.57005 -5.170851,3.28329 c 0,0 -0.0493,-4.88923 1.803048,-6.73089"
               sodipodi:nodetypes="cssccccc" /><path
               id="path1271"
               style="fill:#aaaaaa;fill-opacity:0.920087;stroke:none;stroke-width:0.679736;stroke-linejoin:round"
               d="m 73.10596,201.03663 c -3.607982,1.2545 -5.572971,5.13919 -4.390408,8.67959 1.182563,3.54041 5.065516,5.39764 8.675672,4.14963 3.276724,-1.13273 4.652745,-7.68413 4.652745,-7.68413 l -5.104585,2.99995 -2.202811,-3.60947 5.22881,-3.19011 c 0,0 -4.365196,-2.20275 -6.83544,-1.35375"
               sodipodi:nodetypes="cssccccc" /></g><g
             id="g1281"
             transform="translate(114.34327,-57.99098)"><rect
               style="fill:#ffffff;fill-opacity:1;stroke:none;stroke-width:0.601754;stroke-linecap:butt;stroke-linejoin:round;stroke-dasharray:none;stroke-opacity:1"
               id="rect1275"
               width="22.340899"
               height="6.7127371"
               x="-71.461441"
               y="212.48253"
               ry="0.2256632"
               transform="rotate(-31.900764)" /><path
               id="path1277"
               style="fill:#ffffff;fill-opacity:1;stroke:none;stroke-width:0.679736;stroke-linejoin:round"
               d="m 46.669982,217.49207 c 2.718484,-2.6835 7.071606,-2.73161 9.726196,-0.10748 2.65462,2.6241 2.606804,6.92809 -0.106787,9.61638 -2.46301,2.44005 -8.948869,0.78239 -8.948869,0.78239 l 4.945348,-3.25577 -2.26614,-3.57005 -5.170851,3.28329 c 0,0 -0.0493,-4.88923 1.803048,-6.73089"
               sodipodi:nodetypes="cssccccc" /><path
               id="path1279"
               style="fill:#ffffff;fill-opacity:1;stroke:none;stroke-width:0.679736;stroke-linejoin:round"
               d="m 73.10596,201.03663 c -3.607982,1.2545 -5.572971,5.13919 -4.390408,8.67959 1.182563,3.54041 5.065516,5.39764 8.675672,4.14963 3.276724,-1.13273 4.652745,-7.68413 4.652745,-7.68413 l -5.104585,2.99995 -2.202811,-3.60947 5.22881,-3.19011 c 0,0 -4.365196,-2.20275 -6.83544,-1.35375"
               sodipodi:nodetypes="cssccccc" /></g></g></g></g></g><style
     id="style342">.st0{fill:#ffbc00}.st1{fill:#fff}</style></svg>
